<?xml version="1.0" encoding="UTF-8" standalone="no"?>
<!-- Created with Inkscape (http://www.inkscape.org/) -->

<svg
   xmlns:dc="http://purl.org/dc/elements/1.1/"
   xmlns:cc="http://creativecommons.org/ns#"
   xmlns:rdf="http://www.w3.org/1999/02/22-rdf-syntax-ns#"
   xmlns:svg="http://www.w3.org/2000/svg"
   xmlns="http://www.w3.org/2000/svg"
   xmlns:sodipodi="http://sodipodi.sourceforge.net/DTD/sodipodi-0.dtd"
   xmlns:inkscape="http://www.inkscape.org/namespaces/inkscape"
   width="677.64709"
   height="677.67834"
   id="svg8738"
   version="1.1"
   inkscape:version="0.48.4 r9939"
   sodipodi:docname="AboutIcon.svg">
  <defs
     id="defs8740">
    <filter
       inkscape:collect="always"
       id="filter9349"
       color-interpolation-filters="sRGB">
      <feGaussianBlur
         inkscape:collect="always"
         stdDeviation="7.1844198"
         id="feGaussianBlur9351" />
    </filter>
  </defs>
  <sodipodi:namedview
     id="base"
     pagecolor="#ffffff"
     bordercolor="#666666"
     borderopacity="1.0"
     inkscape:pageopacity="0.0"
     inkscape:pageshadow="2"
     inkscape:zoom="0.7"
     inkscape:cx="348.08371"
     inkscape:cy="335.42202"
     inkscape:document-units="px"
     inkscape:current-layer="layer1"
     showgrid="false"
     inkscape:window-width="1366"
     inkscape:window-height="705"
     inkscape:window-x="-8"
     inkscape:window-y="-8"
     inkscape:window-maximized="1"
     fit-margin-top="0"
     fit-margin-left="0"
     fit-margin-right="0"
     fit-margin-bottom="0" />
  <metadata
     id="metadata8743">
    <rdf:RDF>
      <cc:Work
         rdf:about="">
        <dc:format>image/svg+xml</dc:format>
        <dc:type
           rdf:resource="http://purl.org/dc/dcmitype/StillImage" />
        <dc:title></dc:title>
      </cc:Work>
    </rdf:RDF>
  </metadata>
  <g
     inkscape:label="Layer 1"
     inkscape:groupmode="layer"
     id="layer1"
     transform="translate(-47.467922,-253.23522)">
    <path
       transform="translate(3.429279,16.858436)"
       sodipodi:type="inkscape:offset"
       inkscape:radius="12.785862"
       inkscape:original="M 159.59375 266.40625 L 148.25 303.1875 L 110.8125 314.53125 L 148.25 325.90625 L 159.59375 362.65625 L 170.96875 325.90625 L 208.40625 314.53125 L 170.96875 303.1875 L 159.59375 266.40625 z M 400.90625 266.40625 L 389.53125 303.1875 L 352.125 314.53125 L 389.53125 325.90625 L 400.90625 362.65625 L 412.28125 325.90625 L 449.6875 314.53125 L 412.28125 303.1875 L 400.90625 266.40625 z M 582.71875 277.09375 C 577.37144 277.09375 570.67888 279.10238 566 283.78125 L 80.75 769.0625 C 76.07134 773.07314 74.0625 779.76549 74.0625 785.78125 C 74.0625 791.79701 76.07113 797.78986 80.75 802.46875 L 154.9375 877.34375 C 158.94793 882.02241 165.62852 884.03125 172.3125 884.03125 C 177.65983 884.03125 184.35238 882.02262 189.03125 877.34375 L 674.28125 392.0625 C 678.9597 387.38362 680.96875 381.39055 680.96875 375.375 C 680.96875 369.35925 678.96012 363.33513 674.28125 358.65625 L 600.09375 283.78125 C 596.08332 279.1028 589.40273 277.09375 582.71875 277.09375 z M 583 288.8125 C 587.33784 288.8125 590.59304 290.34821 591.5 291.40625 A 11.709338 11.709338 0 0 0 592.0625 292.03125 L 666.25 366.90625 A 11.709338 11.709338 0 0 0 666.28125 366.9375 C 668.59176 369.24801 669.53125 371.96545 669.53125 375.375 C 669.53125 378.78372 668.61011 381.45218 666.28125 383.78125 L 181.03125 869.0625 C 179.115 870.97875 175.0091 872.3125 172.59375 872.3125 C 168.25566 872.3125 165.00065 870.77677 164.09375 869.71875 A 11.709338 11.709338 0 0 0 163.53125 869.09375 L 89.34375 794.21875 A 11.709338 11.709338 0 0 0 89.3125 794.1875 C 86.98354 791.85853 86.0625 789.19081 86.0625 785.78125 C 86.0625 782.37196 87.606513 778.83735 88.65625 777.9375 A 11.709338 11.709338 0 0 0 89.3125 777.34375 L 574.5625 292.0625 C 576.47876 290.14624 580.58468 288.8125 583 288.8125 z M 281.25 289.8125 L 258.53125 364 L 185 386.71875 L 258.53125 409.46875 L 281.25 483.65625 L 304 409.46875 L 377.5 386.71875 L 304 364 L 281.25 289.8125 z M 401.1875 306.0625 L 401.375 306.65625 A 11.709338 11.709338 0 0 0 409.15625 314.40625 L 409.65625 314.5625 L 409.15625 314.71875 A 11.709338 11.709338 0 0 0 401.375 322.4375 L 401.1875 323.03125 L 401 322.4375 A 11.709338 11.709338 0 0 0 393.21875 314.71875 L 392.71875 314.5625 L 393.21875 314.40625 A 11.709338 11.709338 0 0 0 401 306.65625 L 401.1875 306.0625 z M 159.875 306.09375 L 160.0625 306.65625 A 11.709338 11.709338 0 0 0 167.84375 314.40625 L 168.34375 314.5625 L 167.84375 314.71875 A 11.709338 11.709338 0 0 0 160.0625 322.4375 L 159.875 323 L 159.71875 322.4375 A 11.709338 11.709338 0 0 0 151.9375 314.71875 L 151.4375 314.5625 L 151.9375 314.40625 A 11.709338 11.709338 0 0 0 159.71875 306.625 L 159.875 306.09375 z M 582.4375 322.21875 A 11.709338 11.709338 0 0 0 574 325.6875 L 463.71875 436.625 A 11.709338 11.709338 0 0 0 463.75 453.15625 L 504.53125 493.9375 A 11.709338 11.709338 0 0 0 521.125 493.90625 L 631.40625 382.9375 A 11.709338 11.709338 0 0 0 631.375 366.40625 L 590.59375 325.65625 A 11.709338 11.709338 0 0 0 582.4375 322.21875 z M 281.53125 329.75 L 293.09375 367.4375 A 11.709338 11.709338 0 0 0 300.8125 375.1875 L 338.15625 386.71875 L 300.8125 398.28125 A 11.709338 11.709338 0 0 0 293.09375 406.03125 L 281.53125 443.71875 L 270 406.03125 A 11.709338 11.709338 0 0 0 262.28125 398.28125 L 224.9375 386.71875 L 262.28125 375.1875 A 11.709338 11.709338 0 0 0 270 367.4375 L 281.53125 329.75 z M 582.03125 333.9375 L 622.8125 374.6875 L 512.53125 485.65625 L 471.75 444.875 L 582.03125 333.9375 z M 642.875 507.71875 L 631.5 544.46875 L 594.0625 555.84375 L 631.5 567.1875 L 642.875 603.96875 L 654.21875 567.1875 L 691.65625 555.84375 L 654.21875 544.46875 L 642.875 507.71875 z M 643.15625 547.375 L 643.3125 547.9375 A 11.709338 11.709338 0 0 0 651.09375 555.65625 L 651.59375 555.8125 L 651.09375 555.96875 A 11.709338 11.709338 0 0 0 643.3125 563.75 L 643.15625 564.28125 L 642.96875 563.71875 A 11.709338 11.709338 0 0 0 635.1875 555.96875 L 634.6875 555.8125 L 635.1875 555.65625 A 11.709338 11.709338 0 0 0 642.96875 547.9375 L 643.15625 547.375 z "
       style="fill:#000000;fill-opacity:1;stroke:none;filter:url(#filter9349)"
       id="path9306-5"
       d="m 159.21875,253.625 a 12.787141,12.787141 0 0 0 -11.84375,9 l -9.34375,30.28125 -30.9375,9.375 a 12.787141,12.787141 0 0 0 0,24.46875 l 30.9375,9.40625 9.34375,30.28125 a 12.787141,12.787141 0 0 0 24.4375,0 l 9.375,-30.28125 30.9375,-9.40625 a 12.787141,12.787141 0 0 0 0,-24.46875 l -30.9375,-9.375 -9.375,-30.28125 a 12.787141,12.787141 0 0 0 -12.59375,-9 z m 241.3125,0 a 12.787141,12.787141 0 0 0 -11.84375,9 l -9.375,30.28125 -30.90625,9.375 a 12.787141,12.787141 0 0 0 0,24.46875 l 30.90625,9.40625 9.375,30.28125 a 12.787141,12.787141 0 0 0 24.4375,0 L 422.5,336.15625 453.40625,326.75 a 12.787141,12.787141 0 0 0 0,-24.46875 L 422.5,292.90625 413.125,262.625 a 12.787141,12.787141 0 0 0 -12.59375,-9 z m 182.1875,10.6875 c -8.54918,0 -18.05421,2.74173 -25.75,10.4375 L 72.4375,759.34375 l -0.71875,0.6875 c -8.030207,7.34215 -10.4375,17.15305 -10.4375,25.75 0,8.84159 3.196231,18.41688 10.40625,25.65625 l -0.03125,0.0312 74.1875,74.875 0.0312,-0.0312 c 7.3547,8.06241 17.44986,10.5 26.4375,10.5 8.54919,0 18.05422,-2.74172 25.75,-10.4375 l 485.25,-485.28125 c 7.24431,-7.24498 10.4375,-16.85642 10.4375,-25.71875 0,-8.84171 -3.1761,-18.42804 -10.40625,-25.6875 l 0.0312,-0.0312 -74.1875,-74.875 -0.0312,0.0312 c -7.35462,-8.062 -17.4496,-10.5 -26.4375,-10.5 z m -301.8125,12.71875 a 12.787141,12.787141 0 0 0 -11.875,9.03125 l -20.75,67.71875 -67.0625,20.71875 a 12.787141,12.787141 0 0 0 0,24.4375 l 67.0625,20.75 20.75,67.71875 a 12.787141,12.787141 0 0 0 24.4375,0 l 20.75,-67.71875 67.0625,-20.75 a 12.787141,12.787141 0 0 0 0,-24.4375 l -67.0625,-20.71875 -20.75,-67.71875 a 12.787141,12.787141 0 0 0 -12.5625,-9.03125 z m 302.6875,24.0625 c -0.11988,0.11988 -0.0665,0.11926 -0.15625,0.21875 -0.007,-0.005 -0.0238,-0.0257 -0.0312,-0.0312 l 0.1875,-0.1875 z m -0.28125,0.28125 0.0625,0.0625 c -0.0683,0.081 -0.10895,0.12137 -0.15625,0.1875 0.19005,0.0128 0.25908,0.0378 0.40625,0.0625 l 11.1875,11.28125 c -1.22502,-0.66014 -3.04585,-1.64432 -3,-1.625 0.0641,0.027 -4.59933,-1.42041 -4.53125,-1.40625 0.0681,0.0142 -4.75704,-0.50078 -4.6875,-0.5 a 12.787141,12.787141 0 0 0 -0.0312,0 c 0.0718,7.2e-4 -4.9455,0.45106 -4.875,0.4375 0.0615,-0.0118 -3.2037,0.958 -4.09375,1.21875 l 9.46875,-9.46875 c -0.0453,-0.002 -0.0109,-0.0312 -0.0625,-0.0312 0.0462,0 0.0488,-0.001 0.0937,0 l 0.21875,-0.21875 z m -0.125,0.28125 c -0.7987,1.1598 1.23309,0.1807 0,0 z m 0.6875,0.0625 c 0.96089,-0.34214 -0.17777,-0.54258 0,0 z m -1.8125,50.3125 22.71875,22.6875 L 512.5,467.5625 489.78125,444.84375 582.0625,352.03125 z m 62.59375,11.25 L 656.625,375.375 642.25,389.75 c 0.61294,-0.75125 1.26602,-1.55539 1.25,-1.53125 -0.0389,0.0586 2.27673,-4.28378 2.25,-4.21875 -0.0267,0.065 1.38856,-4.66274 1.375,-4.59375 -0.0136,0.069 0.46862,-4.82031 0.46875,-4.75 1.3e-4,0.0703 -0.48257,-4.85018 -0.46875,-4.78125 0.0138,0.0689 -1.43322,-4.65868 -1.40625,-4.59375 0.0128,0.0308 -0.52032,-0.98802 -1.0625,-2 z M 281.5625,372.6875 c 0.70876,1.58352 1.7511,3.96017 1.71875,3.90625 -0.0449,-0.0748 3.71778,4.74928 3.65625,4.6875 -0.0615,-0.0618 4.73084,3.73266 4.65625,3.6875 -0.0541,-0.0328 2.36286,1.06871 3.9375,1.78125 -1.57786,0.71394 -3.99143,1.78266 -3.9375,1.75 0.0746,-0.0452 -4.71778,3.74928 -4.65625,3.6875 0.0615,-0.0618 -3.70111,4.76227 -3.65625,4.6875 0.0324,-0.0539 -1.00999,2.32273 -1.71875,3.90625 -0.70742,-1.5804 -1.78245,-3.96033 -1.75,-3.90625 0.0449,0.0748 -3.71778,-4.74928 -3.65625,-4.6875 0.0615,0.0618 -4.73084,-3.73266 -4.65625,-3.6875 0.0539,0.0327 -2.35964,-1.03606 -3.9375,-1.75 1.57464,-0.71254 3.99159,-1.814 3.9375,-1.78125 -0.0746,0.0452 4.71778,-3.74928 4.65625,-3.6875 -0.0615,0.0618 3.70111,-4.76227 3.65625,-4.6875 -0.0324,0.0541 1.04258,-2.32585 1.75,-3.90625 z m 168.09375,62.34375 c -0.0612,0.11402 -0.28461,0.53943 -0.28125,0.53125 0.0267,-0.065 -1.38856,4.66274 -1.375,4.59375 0.0136,-0.069 -0.46862,4.82031 -0.46875,4.75 -1.3e-4,-0.0703 0.48257,4.85018 0.46875,4.78125 -0.0138,-0.0689 1.43322,4.65868 1.40625,4.59375 -0.027,-0.0649 2.2891,4.27718 2.25,4.21875 -0.0391,-0.0584 3.11222,3.7372 3.0625,3.6875 L 495.5,502.96875 c -0.0499,-0.05 3.7775,3.10173 3.71875,3.0625 -0.0587,-0.0392 4.31529,2.30823 4.25,2.28125 -0.0653,-0.027 4.66306,1.38869 4.59375,1.375 -0.0693,-0.0137 4.85189,0.46862 4.78125,0.46875 -0.0706,1.3e-4 4.88175,-0.4827 4.8125,-0.46875 -0.0693,0.014 4.65894,-1.46472 4.59375,-1.4375 -0.0499,0.0208 2.07954,-1.12279 3.25,-1.75 l -352.96875,353 c 0.0453,0.002 0.0109,0.0312 0.0625,0.0312 -0.0462,0 -0.0488,0.001 -0.0937,0 l -0.21875,0.21875 -0.0625,-0.0625 c 0.0683,-0.081 0.10895,-0.12137 0.15625,-0.1875 -0.19009,-0.0128 -0.25907,-0.0377 -0.40625,-0.0625 l -73,-73.6875 350.6875,-350.71875 z M 642.5,494.9375 a 12.787141,12.787141 0 0 0 -11.84375,9 l -9.375,30.28125 -30.9375,9.40625 a 12.787141,12.787141 0 0 0 0,24.46875 l 30.9375,9.375 9.375,30.28125 a 12.787141,12.787141 0 0 0 24.4375,0 l 9.34375,-30.28125 30.9375,-9.375 a 12.787141,12.787141 0 0 0 0,-24.46875 l -30.9375,-9.40625 -9.34375,-30.28125 a 12.787141,12.787141 0 0 0 -12.59375,-9 z M 98.96875,785.28125 c 0.04288,-0.11792 0.229738,-0.0508 -0.0625,0.40625 l -0.03125,-0.0312 c 0.02028,-0.0596 0.03862,-0.2234 0.09375,-0.375 z m 73.375,73.5625 c -0.38462,0.15848 -0.60178,0.52765 0.0625,0.625 0.36842,-0.53498 0.26682,-0.76069 -0.0625,-0.625 z m -0.75,0.4375 c 0.0189,0.009 0.10393,0.11356 0.125,0.125 -0.11908,-0.0263 -0.40717,-0.0518 -0.4375,-0.0625 -0.0455,-0.016 -0.016,-0.2175 0.3125,-0.0625 z m 0.5625,0.53125 c 0.007,0.005 0.0238,0.0257 0.0312,0.0312 L 172,860.03125 c 0.11988,-0.11988 0.0665,-0.11926 0.15625,-0.21875 z" />
    <path
       sodipodi:type="inkscape:offset"
       inkscape:radius="9.0200148"
       inkscape:original="M 159.59375 266.40625 L 148.25 303.1875 L 110.8125 314.53125 L 148.25 325.90625 L 159.59375 362.65625 L 170.96875 325.90625 L 208.40625 314.53125 L 170.96875 303.1875 L 159.59375 266.40625 z M 400.90625 266.40625 L 389.53125 303.1875 L 352.125 314.53125 L 389.53125 325.90625 L 400.90625 362.65625 L 412.28125 325.90625 L 449.6875 314.53125 L 412.28125 303.1875 L 400.90625 266.40625 z M 582.71875 277.09375 C 577.37144 277.09375 570.67888 279.10238 566 283.78125 L 80.75 769.0625 C 76.07134 773.07314 74.0625 779.76549 74.0625 785.78125 C 74.0625 791.79701 76.07113 797.78986 80.75 802.46875 L 154.9375 877.34375 C 158.94793 882.02241 165.62852 884.03125 172.3125 884.03125 C 177.65983 884.03125 184.35238 882.02262 189.03125 877.34375 L 674.28125 392.0625 C 678.9597 387.38362 680.96875 381.39055 680.96875 375.375 C 680.96875 369.35925 678.96012 363.33513 674.28125 358.65625 L 600.09375 283.78125 C 596.08332 279.1028 589.40273 277.09375 582.71875 277.09375 z M 583 288.8125 C 587.33784 288.8125 590.59304 290.34821 591.5 291.40625 A 11.709338 11.709338 0 0 0 592.0625 292.03125 L 666.25 366.90625 A 11.709338 11.709338 0 0 0 666.28125 366.9375 C 668.59176 369.24801 669.53125 371.96545 669.53125 375.375 C 669.53125 378.78372 668.61011 381.45218 666.28125 383.78125 L 181.03125 869.0625 C 179.115 870.97875 175.0091 872.3125 172.59375 872.3125 C 168.25566 872.3125 165.00065 870.77677 164.09375 869.71875 A 11.709338 11.709338 0 0 0 163.53125 869.09375 L 89.34375 794.21875 A 11.709338 11.709338 0 0 0 89.3125 794.1875 C 86.98354 791.85853 86.0625 789.19081 86.0625 785.78125 C 86.0625 782.37196 87.606513 778.83735 88.65625 777.9375 A 11.709338 11.709338 0 0 0 89.3125 777.34375 L 574.5625 292.0625 C 576.47876 290.14624 580.58468 288.8125 583 288.8125 z M 281.25 289.8125 L 258.53125 364 L 185 386.71875 L 258.53125 409.46875 L 281.25 483.65625 L 304 409.46875 L 377.5 386.71875 L 304 364 L 281.25 289.8125 z M 401.1875 306.0625 L 401.375 306.65625 A 11.709338 11.709338 0 0 0 409.15625 314.40625 L 409.65625 314.5625 L 409.15625 314.71875 A 11.709338 11.709338 0 0 0 401.375 322.4375 L 401.1875 323.03125 L 401 322.4375 A 11.709338 11.709338 0 0 0 393.21875 314.71875 L 392.71875 314.5625 L 393.21875 314.40625 A 11.709338 11.709338 0 0 0 401 306.65625 L 401.1875 306.0625 z M 159.875 306.09375 L 160.0625 306.65625 A 11.709338 11.709338 0 0 0 167.84375 314.40625 L 168.34375 314.5625 L 167.84375 314.71875 A 11.709338 11.709338 0 0 0 160.0625 322.4375 L 159.875 323 L 159.71875 322.4375 A 11.709338 11.709338 0 0 0 151.9375 314.71875 L 151.4375 314.5625 L 151.9375 314.40625 A 11.709338 11.709338 0 0 0 159.71875 306.625 L 159.875 306.09375 z M 582.4375 322.21875 A 11.709338 11.709338 0 0 0 574 325.6875 L 463.71875 436.625 A 11.709338 11.709338 0 0 0 463.75 453.15625 L 504.53125 493.9375 A 11.709338 11.709338 0 0 0 521.125 493.90625 L 631.40625 382.9375 A 11.709338 11.709338 0 0 0 631.375 366.40625 L 590.59375 325.65625 A 11.709338 11.709338 0 0 0 582.4375 322.21875 z M 281.53125 329.75 L 293.09375 367.4375 A 11.709338 11.709338 0 0 0 300.8125 375.1875 L 338.15625 386.71875 L 300.8125 398.28125 A 11.709338 11.709338 0 0 0 293.09375 406.03125 L 281.53125 443.71875 L 270 406.03125 A 11.709338 11.709338 0 0 0 262.28125 398.28125 L 224.9375 386.71875 L 262.28125 375.1875 A 11.709338 11.709338 0 0 0 270 367.4375 L 281.53125 329.75 z M 582.03125 333.9375 L 622.8125 374.6875 L 512.53125 485.65625 L 471.75 444.875 L 582.03125 333.9375 z M 642.875 507.71875 L 631.5 544.46875 L 594.0625 555.84375 L 631.5 567.1875 L 642.875 603.96875 L 654.21875 567.1875 L 691.65625 555.84375 L 654.21875 544.46875 L 642.875 507.71875 z M 643.15625 547.375 L 643.3125 547.9375 A 11.709338 11.709338 0 0 0 651.09375 555.65625 L 651.59375 555.8125 L 651.09375 555.96875 A 11.709338 11.709338 0 0 0 643.3125 563.75 L 643.15625 564.28125 L 642.96875 563.71875 A 11.709338 11.709338 0 0 0 635.1875 555.96875 L 634.6875 555.8125 L 635.1875 555.65625 A 11.709338 11.709338 0 0 0 642.96875 547.9375 L 643.15625 547.375 z "
       style="fill:#e6e6e6;fill-opacity:1;stroke:none"
       id="path9306"
       d="m 159.3125,257.40625 a 9.0209168,9.0209168 0 0 0 -8.34375,6.34375 l -9.9375,32.1875 -32.84375,9.96875 a 9.0209168,9.0209168 0 0 0 0,17.25 l 32.84375,9.96875 9.9375,32.1875 a 9.0209168,9.0209168 0 0 0 17.25,0 l 9.96875,-32.1875 32.84375,-9.96875 a 9.0209168,9.0209168 0 0 0 0,-17.25 L 178.1875,295.9375 168.21875,263.75 a 9.0209168,9.0209168 0 0 0 -8.90625,-6.34375 z m 241.3125,0 a 9.0209168,9.0209168 0 0 0 -8.34375,6.34375 l -9.96875,32.1875 -32.8125,9.96875 a 9.0209168,9.0209168 0 0 0 0,17.25 l 32.8125,9.96875 9.96875,32.1875 a 9.0209168,9.0209168 0 0 0 17.25,0 L 419.5,333.125 l 32.8125,-9.96875 a 9.0209168,9.0209168 0 0 0 0,-17.25 L 419.5,295.9375 409.53125,263.75 a 9.0209168,9.0209168 0 0 0 -8.90625,-6.34375 z m 182.09375,10.65625 c -7.60612,0 -16.28654,2.53655 -23.09375,9.34375 l -484.75,484.8125 -0.5,0.46875 0.03125,0.0312 c -7.051317,6.37864 -9.375,15.23399 -9.375,23.0625 0,8.01041 2.845859,16.54587 9.3125,23.03125 0.01063,0.0107 0.0206,0.0206 0.03125,0.0312 l 73.71875,74.375 c 0.14239,0.16611 0.29226,0.30765 0.4375,0.46875 6.3846,7.08144 15.47886,9.375 23.78125,9.375 7.60614,0 16.28655,-2.53655 23.09375,-9.34375 l 485.25,-485.28125 C 687.14483,391.94832 690,383.39886 690,375.375 c 0,-8.01044 -2.8317,-16.56292 -9.3125,-23.0625 l -0.0312,-0.0312 -73.71875,-74.375 c -0.14239,-0.1661 -0.29226,-0.30766 -0.4375,-0.46875 -6.38455,-7.08109 -15.47867,-9.375 -23.78125,-9.375 z M 281,280.8125 a 9.0209168,9.0209168 0 0 0 -8.375,6.34375 l -21.3125,69.625 -68.96875,21.3125 a 9.0209168,9.0209168 0 0 0 0,17.25 l 68.96875,21.34375 21.3125,69.625 a 9.0209168,9.0209168 0 0 0 17.25,0 l 21.34375,-69.625 68.9375,-21.34375 a 9.0209168,9.0209168 0 0 0 0,-17.25 l -68.9375,-21.3125 -21.34375,-69.625 A 9.0209168,9.0209168 0 0 0 281,280.8125 z m 302,17.03125 c 1.07811,0 1.99406,0.20279 2.5,0.375 0.0161,0.0177 0.0898,0.0897 0.0937,0.0937 a 9.0209168,9.0209168 0 0 0 0.0625,0.0625 l 74.1875,74.875 a 9.0209168,9.0209168 0 0 0 0.0312,0.0312 c 0.002,0.002 0.0289,0.0289 0.0312,0.0312 0.67451,0.67451 0.59375,0.30991 0.59375,2.0625 0,1.78373 0.14026,1.29718 -0.59375,2.03125 l -485.25,485.28125 c 1.15939,-1.15939 -2.9677,0.59375 -2.0625,0.59375 -1.07827,0 -1.99414,-0.20281 -2.5,-0.375 -0.0161,-0.0177 -0.0898,-0.0897 -0.0937,-0.0937 A 9.0209168,9.0209168 0 0 0 169.9375,862.75 L 95.75,787.875 a 9.0209168,9.0209168 0 0 0 -0.03125,-0.0312 c -0.0024,-0.002 -0.02885,-0.0289 -0.03125,-0.0312 -0.734482,-0.73449 -0.59375,-0.2461 -0.59375,-2.03125 0,-0.34297 0.139554,-1.21974 0.34375,-1.78125 0.05583,-0.0509 0.179343,-0.17954 0.1875,-0.1875 a 9.0209168,9.0209168 0 0 0 0.0625,-0.0937 l 485.25,-485.28125 c -1.1594,1.1594 2.96775,-0.59375 2.0625,-0.59375 z m -0.46875,15.34375 c -0.17934,-0.002 -3.94888,0.34113 -4.125,0.375 -0.17612,0.0339 -3.80287,1.1193 -3.96875,1.1875 -0.16588,0.0682 -3.50723,1.86895 -3.65625,1.96875 -0.14902,0.0998 -3.06129,2.49757 -3.1875,2.625 L 457.3125,430.28125 c -0.12375,0.12464 -2.46539,2.97866 -2.5625,3.125 -0.0971,0.14634 -1.83948,3.4313 -1.90625,3.59375 -0.0668,0.16245 -1.12238,3.70266 -1.15625,3.875 -0.0339,0.17234 -0.37533,3.85562 -0.375,4.03125 3.3e-4,0.17563 0.34048,3.85904 0.375,4.03125 0.0345,0.17221 1.12012,3.71281 1.1875,3.875 0.0674,0.16219 1.83983,3.44778 1.9375,3.59375 0.0977,0.14597 2.43828,3.00083 2.5625,3.125 l 40.78125,40.78125 c 0.12477,0.12481 3.00948,2.49575 3.15625,2.59375 0.14677,0.098 3.43065,1.83885 3.59375,1.90625 0.1631,0.0674 3.70186,1.15331 3.875,1.1875 0.17314,0.0342 3.88602,0.37533 4.0625,0.375 0.17648,-3.3e-4 3.88949,-0.3714 4.0625,-0.40625 0.17301,-0.0349 3.7434,-1.11949 3.90625,-1.1875 0.16285,-0.068 3.4161,-1.83895 3.5625,-1.9375 0.1464,-0.0985 3.03195,-2.46847 3.15625,-2.59375 L 637.8125,389.28125 c 0.12375,-0.12464 2.46539,-2.97866 2.5625,-3.125 0.0971,-0.14634 1.83948,-3.4313 1.90625,-3.59375 0.0668,-0.16245 1.12238,-3.70266 1.15625,-3.875 0.0339,-0.17234 0.37533,-3.85562 0.375,-4.03125 -3.3e-4,-0.17563 -0.34048,-3.85904 -0.375,-4.03125 -0.0345,-0.17221 -1.12012,-3.71281 -1.1875,-3.875 -0.0674,-0.16219 -1.83983,-3.44778 -1.9375,-3.59375 -0.0977,-0.14597 -2.43828,-3.00083 -2.5625,-3.125 l -40.78125,-40.75 c -0.12271,-0.12297 -2.94966,-2.46547 -3.09375,-2.5625 -0.14409,-0.097 -3.37117,-1.83878 -3.53125,-1.90625 -0.16008,-0.0675 -3.64242,-1.15212 -3.8125,-1.1875 -0.17008,-0.0354 -3.82629,-0.43554 -4,-0.4375 z m -0.46875,33.53125 28.03125,28 L 512.5,472.875 l -28.03125,-28.03125 97.59375,-98.125 z m -300.53125,13.8125 2.9375,9.5625 c 0.0638,0.20826 1.91919,4.37572 2.03125,4.5625 0.11206,0.18678 2.94004,3.81442 3.09375,3.96875 0.15371,0.15433 3.78242,3.01218 3.96875,3.125 0.18633,0.11282 4.3545,1.99783 4.5625,2.0625 a 9.0209168,9.0209168 0 0 0 0.0312,0 l 9.4375,2.90625 -9.4375,2.9375 a 9.0209168,9.0209168 0 0 0 -0.0312,0 c -0.208,0.0647 -4.37617,1.94968 -4.5625,2.0625 -0.18633,0.11282 -3.81504,2.97067 -3.96875,3.125 -0.15371,0.15433 -2.98169,3.78197 -3.09375,3.96875 -0.11206,0.18678 -1.96742,4.35424 -2.03125,4.5625 l -2.9375,9.5625 -2.90625,-9.53125 a 9.0209168,9.0209168 0 0 0 0,-0.0312 c -0.0638,-0.20826 -1.91919,-4.37572 -2.03125,-4.5625 -0.11206,-0.18678 -2.94004,-3.81442 -3.09375,-3.96875 -0.15371,-0.15433 -3.78242,-3.01218 -3.96875,-3.125 -0.18633,-0.11282 -4.3545,-1.99783 -4.5625,-2.0625 a 9.0209168,9.0209168 0 0 0 -0.0312,0 l -9.4375,-2.9375 9.4375,-2.90625 a 9.0209168,9.0209168 0 0 0 0.0312,0 c 0.208,-0.0647 4.37617,-1.94968 4.5625,-2.0625 0.18633,-0.11282 3.81504,-2.97067 3.96875,-3.125 0.15371,-0.15433 2.98169,-3.78197 3.09375,-3.96875 0.11206,-0.18678 1.96742,-4.35424 2.03125,-4.5625 a 9.0209168,9.0209168 0 0 0 0,-0.0312 l 2.90625,-9.53125 z M 642.625,498.71875 a 9.0209168,9.0209168 0 0 0 -8.375,6.34375 l -9.96875,32.1875 -32.84375,9.96875 a 9.0209168,9.0209168 0 0 0 0,17.25 l 32.84375,9.96875 9.96875,32.1875 a 9.0209168,9.0209168 0 0 0 17.25,0 l 9.9375,-32.1875 32.84375,-9.96875 a 9.0209168,9.0209168 0 0 0 0,-17.25 L 661.4375,537.25 651.5,505.0625 a 9.0209168,9.0209168 0 0 0 -8.875,-6.34375 z" />
  </g>
</svg>
