<?xml version="1.0" encoding="UTF-8" standalone="no"?>
<svg width="256px" height="256px" viewBox="0 0 256 256" version="1.1" xmlns="http://www.w3.org/2000/svg" xmlns:xlink="http://www.w3.org/1999/xlink">
    
    <title>Coink Logo</title>

    <defs>
        <path id="coin" d="M38,83 C58.9868215,83 76,65.9868215 76,45 C76,24.0131785 58.9868215,7 38,7 C17.0131785,7 0,24.0131785 0,45 C0,65.9868215 17.0131785,83 38,83 Z"></path>

        <path id="pig" d="M200.219004,40 C195.228989,35 185.248959,29 177.264936,26 C175.26893,26 174.270927,26.0000014 172.274921,29.0000007 L176.701749,8.72257407 C178.115152,2.24837518 174.10422,-1.53363198 167.766363,0.380494224 C167.766363,0.380494224 157.304876,2.99999998 153.312864,5.99999997 C149.320852,8.99999994 139.340823,26.9999995 139.340823,26.9999995 C139.340823,26.9999995 140.338826,11.9999997 137.344817,10 C73.4726263,4.00000021 35.5485133,44.9999988 36.5465163,84.9999988 C28.5624925,85.9999988 27.5644895,85.9999988 23.5724776,83.9999988 C36.5465163,68.9999988 30.7151322,53.9999995 24.5704806,53.9999988 C17.584456,53.9999988 12.5944411,61.9999988 13.5924479,79.9999988 C3.61241817,78.9999988 5.60842412,60.9999988 5.60842412,56.9999988 C-7.36561453,78.9999988 6.60642709,87.9999988 16.5864568,86.9999988 C22.5744747,98.9999988 30.5584985,93.9999988 37.5445193,94.9999988 C41.5365312,120.999999 67.4846085,141.000006 67.4846085,141.000006 L63.4925966,162.000006 C63.4925966,164.209145 67.4846085,166.000006 67.4846085,166.000006 L87.4446679,166.000006 C94.4306887,165.000006 100.418707,150.000006 100.418707,150.000006 L137.344817,150.000006 C137.344817,150.000006 140.338826,161.000006 148.322849,166.000006 L170.278915,166.000006 C172.483642,166.000006 174.270927,162.000006 174.270927,162.000006 L171.276918,140.000006 C171.276918,140.000006 185.248959,132.000006 203.213013,116.999999 L214.191046,115.999999 C216.395773,115.999999 217.185054,110.999999 217.185054,110.999999 C217.185055,108.157554 215.189049,104.842443 215.189049,101.999999 C232.155099,106.999999 229.16109,67 229.16109,67 L214.191046,67 C209.201031,67 205.209018,45.0000003 200.219004,40 Z M19.5804656,78.9999992 C16.5864564,72.9999999 20.5784688,58.9999999 24.5704806,60 C28.5624924,61 26.5664866,73.9999999 19.5804656,78.9999992 Z"></path>
    </defs>
    
    <g id="Flat-Logo">
        <g id="Logo" transform="translate(14, 10)">
            
            <g id="Coin0" transform="translate(33, 19)">
                
                <g id="Coin">
                    <use stroke-opacity="0.54" stroke="#FFEE41" stroke-width="8" fill="#FFEE41" fill-rule="evenodd" xlink:href="#coin"></use>
                    <use stroke="#FFFFFF" stroke-width="4" fill="#FFEE41" xlink:href="#coin"></use>
                    <use fill="#FFEE41" xlink:href="#coin"></use>
                </g>

                <text id="0" stroke="#FFFFFF" stroke-width="2" fill="#FFA400" font-family="Helvetica" font-size="70" font-weight="bold">
                    <tspan x="19" y="68">0</tspan>
                </text>
            </g>
            
            <g id="Coin1" transform="translate(115, 0)">
                
                <g id="Coin">
                    <use stroke-opacity="0.54" stroke="#FFEE41" stroke-width="8" fill="#FFEE41" fill-rule="evenodd" xlink:href="#coin"></use>
                    <use stroke="#FFFFFF" stroke-width="4" fill="#FFEE41" xlink:href="#coin"></use>
                    <use fill="#FFEE41" xlink:href="#coin"></use>
                </g>
                
                <text id="1" stroke="#FFFFFF" stroke-width="2" fill="#FFA400" font-family="Helvetica" font-size="70" font-weight="bold">
                    <tspan x="19" y="68">1</tspan>
                </text>
            </g>

            <g id="Pig" transform="translate(0, 64)">

                <g stroke-linecap="round" stroke-linejoin="round">
                    <use stroke-opacity="0.51" stroke="#FF8888" stroke-width="14" fill="#FF8888" fill-rule="evenodd" xlink:href="#pig"></use>
                    <use stroke="#FFFFFF" stroke-width="8" fill="#FF8888" xlink:href="#pig"></use>
                    <use stroke-width="0" fill="#FF8888" xlink:href="#pig"></use>
                </g>

                <ellipse id="eye" fill="#FFFFFF" cx="189" cy="63.5" rx="6" ry="12.5"></ellipse>

            </g>
        </g>
    </g>

</svg>