<?xml version="1.0" encoding="UTF-8" standalone="no"?>
<!-- Created with Inkscape (http://www.inkscape.org/) -->

<svg
   xmlns:dc="http://purl.org/dc/elements/1.1/"
   xmlns:cc="http://creativecommons.org/ns#"
   xmlns:rdf="http://www.w3.org/1999/02/22-rdf-syntax-ns#"
   xmlns:svg="http://www.w3.org/2000/svg"
   xmlns="http://www.w3.org/2000/svg"
   xmlns:sodipodi="http://sodipodi.sourceforge.net/DTD/sodipodi-0.dtd"
   xmlns:inkscape="http://www.inkscape.org/namespaces/inkscape"
   width="735.40753"
   height="693.2644"
   id="svg8148"
   version="1.1"
   inkscape:version="0.48.4 r9939"
   sodipodi:docname="ExchangesIcon.svg">
  <defs
     id="defs8150">
    <filter
       inkscape:collect="always"
       id="filter8722"
       color-interpolation-filters="sRGB">
      <feGaussianBlur
         inkscape:collect="always"
         stdDeviation="7.7652488"
         id="feGaussianBlur8724" />
    </filter>
  </defs>
  <sodipodi:namedview
     id="base"
     pagecolor="#ffffff"
     bordercolor="#666666"
     borderopacity="1.0"
     inkscape:pageopacity="0.0"
     inkscape:pageshadow="2"
     inkscape:zoom="0.49497475"
     inkscape:cx="39.844362"
     inkscape:cy="476.62111"
     inkscape:document-units="px"
     inkscape:current-layer="layer1"
     showgrid="false"
     inkscape:window-width="1366"
     inkscape:window-height="705"
     inkscape:window-x="-8"
     inkscape:window-y="-8"
     inkscape:window-maximized="1"
     fit-margin-top="0"
     fit-margin-left="0"
     fit-margin-right="0"
     fit-margin-bottom="0" />
  <metadata
     id="metadata8153">
    <rdf:RDF>
      <cc:Work
         rdf:about="">
        <dc:format>image/svg+xml</dc:format>
        <dc:type
           rdf:resource="http://purl.org/dc/dcmitype/StillImage" />
        <dc:title />
      </cc:Work>
    </rdf:RDF>
  </metadata>
  <g
     inkscape:label="Layer 1"
     inkscape:groupmode="layer"
     id="layer1"
     transform="translate(-20.867678,-281.90625)">
    <path
       transform="matrix(1.0164831,0,0,1.0205072,-4.640873,16.948057)"
       sodipodi:type="inkscape:offset"
       inkscape:radius="6.6319394"
       inkscape:original="M 172.3125 276.46875 C 120.82841 276.46875 80.15625 317.77635 80.15625 368.625 C 80.15625 419.47346 121.46406 460.78125 172.3125 460.78125 C 223.16115 460.78125 264.46875 419.47346 264.46875 368.625 C 264.46875 317.77635 223.79679 276.46875 172.3125 276.46875 z M 585.46875 276.46875 C 533.98466 276.46875 493.3125 317.77635 493.3125 368.625 C 493.3125 419.47346 534.6203 460.78125 585.46875 460.78125 C 636.31736 460.78125 677.625 419.47346 677.625 368.625 C 677.625 317.77635 636.95302 276.46875 585.46875 276.46875 z M 172.25 296.4375 C 213.04942 296.4375 244.4375 328.42832 244.4375 368.625 C 244.4375 408.65498 212.28016 440.8125 172.25 440.8125 C 132.2201 440.8125 100.0625 408.65492 100.0625 368.625 C 100.0625 328.42837 131.45083 296.4375 172.25 296.4375 z M 585.40625 296.4375 C 626.20564 296.4375 657.59375 328.42832 657.59375 368.625 C 657.59375 408.65497 625.43636 440.8125 585.40625 440.8125 C 545.37633 440.8125 513.21875 408.65493 513.21875 368.625 C 513.21875 328.42837 544.60708 296.4375 585.40625 296.4375 z M 378.90625 368.625 C 302.63338 368.625 240.96875 430.28962 240.96875 506.5625 C 240.96875 582.83538 302.63338 644.46875 378.90625 644.46875 C 455.17893 644.46875 516.8125 582.83538 516.8125 506.5625 C 516.8125 430.28962 455.17893 368.625 378.90625 368.625 z M 378.84375 388.59375 C 444.34976 388.59375 496.78125 441.05084 496.78125 506.5625 C 496.78125 572.07416 444.35522 624.5 378.84375 624.5 C 313.33206 624.5 260.875 572.06874 260.875 506.5625 C 260.875 441.05626 313.33752 388.59375 378.84375 388.59375 z M 78.875 460.78125 C 33.110421 460.78125 34.40625 558.0432 34.40625 587.28125 C 34.40625 627.3245 67.457864 644.46875 103.6875 644.46875 L 151.96875 644.46875 C 176.1217 615.86635 209.82243 599.35378 246.6875 598.71875 C 228.25487 571.38762 217.4375 538.97852 217.4375 506.5625 C 217.4375 498.93527 218.07167 490.65848 219.34375 483.03125 C 204.0891 488.75177 188.21342 491.28125 171.6875 491.28125 C 123.38138 491.28125 86.50223 460.78125 78.875 460.78125 z M 678.90625 460.78125 C 671.91448 460.78125 634.39986 491.28125 586.09375 491.28125 C 569.56783 491.28125 553.69217 488.11613 538.4375 483.03125 C 539.70958 490.65848 540.34375 498.93527 540.34375 506.5625 C 540.34375 539.61395 529.52638 572.02325 511.09375 598.71875 C 547.95902 599.35439 582.29496 615.86635 605.8125 644.46875 L 654.125 644.46875 C 689.71909 644.46875 723.40625 626.68885 723.40625 587.28125 C 723.40625 558.0432 724.66984 460.78125 678.90625 460.78125 z M 683.59375 480.0625 C 683.7824 480.0304 683.59275 480.22384 682.875 480.40625 C 682.9558 480.36735 683.21209 480.21974 683.28125 480.1875 C 683.42107 480.1223 683.53087 480.07321 683.59375 480.0625 z M 74.375 480.15625 C 74.3474 480.12095 74.481462 480.15925 74.75 480.28125 C 74.79204 480.30035 74.953498 480.38459 75 480.40625 C 74.591861 480.30006 74.4026 480.1915 74.375 480.15625 z M 76.03125 480.96875 C 76.03765 480.97175 76.0561 480.96575 76.0625 480.96875 C 77.142757 481.50368 78.286164 482.07936 80.21875 483.125 C 85.307007 485.87804 92.635127 489.93889 101.46875 494.09375 C 119.13597 502.40347 143.26775 511.25 171.625 511.25 C 180.30741 511.25 188.94395 510.56906 197.5 509.21875 C 197.90452 534.73095 204.1208 559.76547 214.84375 582.78125 C 187.65568 589.36326 163.01405 603.9025 143.28125 624.5 L 103.625 624.5 C 88.661113 624.5 75.342775 620.68791 67.125 614.71875 C 58.907225 608.74959 54.3125 601.80687 54.3125 587.28125 C 54.3125 572.36712 54.193433 541.91779 59.03125 516.84375 C 61.450158 504.30673 65.3012 493.3783 69.21875 487.4375 C 72.156912 482.9819 73.641499 481.45375 76.03125 480.96875 z M 681.71875 481 C 684.05167 481.50779 685.53805 483.04262 688.4375 487.4375 C 692.35783 493.37981 696.23378 504.30671 698.65625 516.84375 C 703.50119 541.91783 703.375 572.37446 703.375 587.28125 C 703.375 601.293 698.68852 608.37898 690.28125 614.5 C 681.87398 620.62102 668.53344 624.5 654.0625 624.5 L 614.5 624.5 C 595.0011 603.80827 570.2286 589.33713 543 582.78125 C 553.67858 559.91031 559.79631 534.7786 560.15625 508.96875 C 568.56004 510.37834 577.16736 511.25 586.03125 511.25 C 614.38849 511.25 638.64735 502.43711 656.40625 494.125 C 665.2857 489.96895 672.60607 485.87568 677.71875 483.09375 C 679.55774 482.09311 680.63149 481.55179 681.71875 481 z M 250.5 620.96875 C 145.62492 620.96875 126.5625 745.54849 126.5625 826.90625 C 126.5625 884.74649 164.70164 919.6875 221.90625 919.6875 L 535.875 919.6875 C 593.07959 919.6875 631.21875 885.38212 631.21875 826.90625 C 631.21875 745.54849 612.15629 620.96875 507.28125 620.96875 C 495.20457 620.96875 450.72968 671.15625 378.90625 671.15625 C 307.08263 671.15625 263.21232 620.96875 250.5 620.96875 z M 247.71875 641.03125 C 249.16915 641.84015 251.53112 643.31249 254.65625 645.40625 C 261.35584 649.89481 270.78029 656.53876 282.40625 663.3125 C 305.65817 676.85997 338.27916 691.125 378.84375 691.125 C 419.40826 691.125 452.13385 676.89447 475.46875 663.34375 C 487.1362 656.56839 496.60361 649.89083 503.3125 645.375 C 506.3995 643.29711 508.69835 641.86222 510.15625 641.03125 C 552.70313 642.06649 574.56285 665.26159 590.1875 701.375 C 606.17476 738.32651 611.1875 787.78751 611.1875 826.90625 C 611.1875 851.8013 603.56114 868.93954 591.15625 880.75 C 578.75136 892.56046 560.42165 899.71875 535.8125 899.71875 L 221.84375 899.71875 C 197.30858 899.71875 178.98023 892.47423 166.53125 880.5625 C 154.08227 868.65077 146.46875 851.43576 146.46875 826.90625 C 146.46875 787.78751 151.4815 738.32651 167.46875 701.375 C 183.12037 665.19925 205.02659 641.99148 247.71875 641.03125 z "
       style="opacity:0.72000002;fill:#000000;fill-opacity:1;stroke:none;filter:url(#filter8722)"
       id="path8694-5"
       d="m 172.3125,269.84375 c -55.03146,0 -98.78125,44.39615 -98.78125,98.78125 0,54.44019 44.34108,98.78125 98.78125,98.78125 54.44036,0 98.78125,-44.34108 98.78125,-98.78125 0,-54.38508 -43.74961,-98.78125 -98.78125,-98.78125 z m 413.15625,0 c -55.03146,0 -98.78125,44.39615 -98.78125,98.78125 0,54.44019 44.34107,98.78125 98.78125,98.78125 54.44033,0 98.78125,-44.34107 98.78125,-98.78125 0,-54.38508 -43.74962,-98.78125 -98.78125,-98.78125 z M 172.25,303.0625 c 37.33268,0 65.5625,28.81824 65.5625,65.5625 0,36.47822 -29.08411,65.5625 -65.5625,65.5625 -36.4781,0 -65.5625,-29.08438 -65.5625,-65.5625 0,-36.74418 28.23009,-65.5625 65.5625,-65.5625 z m 413.15625,0 c 37.33265,0 65.5625,28.81825 65.5625,65.5625 0,36.4782 -29.08416,65.5625 -65.5625,65.5625 -36.47813,0 -65.5625,-29.08436 -65.5625,-65.5625 0,-36.74418 28.23009,-65.5625 65.5625,-65.5625 z M 378.90625,362 c -79.84737,0 -144.5625,64.71512 -144.5625,144.5625 0,79.84738 64.71694,144.53125 144.5625,144.53125 79.84538,0 144.53125,-64.68567 144.53125,-144.53125 C 523.4375,426.71692 458.75344,362 378.90625,362 z m -0.0625,33.21875 c 61.96545,0 111.3125,49.37062 111.3125,111.34375 0,61.9735 -49.33919,111.3125 -111.3125,111.3125 C 316.87057,617.875 267.5,568.52819 267.5,506.5625 c 0,-61.96532 49.37844,-111.34375 111.34375,-111.34375 z M 78.875,454.15625 c -13.790252,0 -24.671421,7.84325 -31.78125,18.625 -7.109829,10.78175 -11.333933,24.56536 -14.125,39.03125 -5.582135,28.93178 -5.1875,60.9477 -5.1875,75.46875 0,21.84629 9.47114,38.57428 23.78125,48.96875 14.31011,10.39447 32.964081,14.84375 52.125,14.84375 l 48.28125,0 a 6.6326026,6.6326026 0 0 0 5.0625,-2.34375 c 23.00276,-27.24033 54.82609,-42.80412 89.78125,-43.40625 A 6.6326026,6.6326026 0 0 0 252.1875,595 c -17.74625,-26.31339 -28.125,-57.49689 -28.125,-88.4375 0,-7.25962 0.60966,-15.22541 1.8125,-22.4375 A 6.6326026,6.6326026 0 0 0 217,476.8125 c -14.44003,5.41504 -29.46331,7.84375 -45.3125,7.84375 -22.75728,0 -43.11561,-7.22733 -58.84375,-14.625 -7.86407,-3.69884 -14.524971,-7.41782 -19.875,-10.3125 -2.675014,-1.44734 -5.022886,-2.68545 -7.15625,-3.65625 -2.133364,-0.9708 -3.774096,-1.90625 -6.9375,-1.90625 z m 600.03125,0 c -3.28483,0 -4.74155,0.97223 -6.8125,1.9375 -2.07095,0.96527 -4.38013,2.18246 -7.03125,3.625 -5.30225,2.88508 -11.97324,6.61406 -19.875,10.3125 -15.80351,7.39688 -36.33648,14.625 -59.09375,14.625 -15.67913,0 -30.83412,-2.9968 -45.5625,-7.90625 a 6.6326026,6.6326026 0 0 0 -8.625,7.375 c 1.20284,7.21209 1.8125,15.17788 1.8125,22.4375 0,31.60441 -10.39779,62.7464 -28.09375,88.375 a 6.6326026,6.6326026 0 0 0 5.34375,10.40625 c 34.95683,0.60273 67.41718,16.22023 89.71875,43.34375 a 6.6326026,6.6326026 0 0 0 5.125,2.40625 l 48.3125,0 c 18.9013,0 37.55323,-4.64386 51.90625,-15.09375 14.35302,-10.44989 24,-27.1252 24,-48.71875 0,-14.52349 0.40284,-46.53699 -5.1875,-75.46875 -2.79517,-14.46588 -7.0435,-28.25 -14.15625,-39.03125 -7.11275,-10.78125 -17.99119,-18.625 -31.78125,-18.625 z m 2.34375,19.8125 1.625,6.4375 1.21875,2.5 1.625,3.40625 c 0.0747,0.0333 0.43742,0.0364 -1,0.28125 -0.0264,0.005 -0.12902,-0.005 -0.15625,0 L 681.71875,481 680.625,485.96875 c -0.55725,-0.28466 -1.18884,-0.68045 -1.8125,-1.34375 -1.30954,-1.39278 -1.9555,-3.94971 -1.71875,-5.53125 0.4735,-3.16309 1.64349,-3.50721 2.125,-3.9375 0.48151,-0.43029 0.74766,-0.58801 0.96875,-0.71875 0.88436,-0.52297 1.01412,-0.45645 1.0625,-0.46875 z M 76.65625,474 c 1.190139,0.32585 3.617757,3.10577 2.9375,2.0625 0.154915,0.19813 0.332127,0.46375 0.53125,0.8125 0.199123,0.34875 0.625234,1.43831 0.625,1.4375 -2.34e-4,-8.1e-4 0.218673,2.59442 0.21875,2.59375 7.7e-5,-6.7e-4 -1.281637,3.18802 -1.28125,3.1875 3.87e-4,-5.2e-4 -2.156945,1.87538 -2.15625,1.875 1.91e-4,-10e-5 -0.324998,0.0962 -0.46875,0.15625 L 76.03125,481 75.46875,482.15625 73.25,486.625 c -0.192727,-0.056 -0.715227,-0.12505 -0.8125,-0.15625 -0.231901,-0.0744 -0.204312,-0.0732 -0.25,-0.0937 L 75,480.40625 75.25,479.46875 76.65625,474 z m -0.125,14.6875 c 0.223708,0.11968 0.278948,0.14474 0.53125,0.28125 5.031555,2.72236 12.532379,6.86302 21.59375,11.125 18.1315,8.52809 43.2322,17.78125 72.96875,17.78125 6.55661,0 13.07003,-0.50784 19.5625,-1.25 1.22966,21.37209 6.49362,42.18835 14.71875,61.78125 -24.60834,7.33038 -46.92677,20.9516 -65.3125,39.46875 l -36.96875,0 c -13.837551,0 -26.046364,-3.77541 -32.59375,-8.53125 -7.190449,-5.22294 -10.09375,-8.93542 -10.09375,-22.0625 0,-14.94943 -0.05102,-45.11399 4.59375,-69.1875 2.30667,-11.9553 6.259326,-22.51216 9.21875,-27 0.919515,-1.39441 1.294145,-1.8044 1.78125,-2.40625 z m 604.625,0.0625 c 0.48526,0.60258 0.85594,0.98857 1.75,2.34375 2.96887,4.50012 6.94134,15.05197 9.25,27 4.65109,24.07084 4.59375,54.24328 4.59375,69.1875 0,12.53297 -2.98857,16.46596 -10.375,21.84375 -6.7863,4.94085 -19.0267,8.75 -32.3125,8.75 l -36.84375,0 c -18.1859,-18.58054 -40.51779,-32.12955 -65.09375,-39.4375 8.16766,-19.50139 13.15651,-40.43808 14.34375,-61.96875 6.3813,0.81088 12.8622,1.40625 19.5625,1.40625 29.73129,0 54.9585,-9.21786 73.1875,-17.75 9.12617,-4.27153 16.60809,-8.47193 21.65625,-11.21875 0.13131,-0.0715 0.15842,-0.0898 0.28125,-0.15625 z M 250.5,614.34375 c -55.06354,0 -88.87329,33.67429 -107.375,76.4375 -18.50171,42.76321 -23.1875,94.92816 -23.1875,136.125 0,30.37779 10.15817,55.56395 28.25,72.875 18.09183,17.31105 43.76617,26.53125 73.71875,26.53125 l 313.96875,0 c 29.92801,0 55.58103,-9.04241 73.6875,-26.28125 18.10647,-17.23884 28.28125,-42.44524 28.28125,-73.125 0,-41.19684 -4.68578,-93.36179 -23.1875,-136.125 -18.50172,-42.76321 -52.31148,-76.4375 -107.375,-76.4375 -3.8063,0 -6.32951,1.39045 -9.21875,2.96875 -2.88924,1.5783 -5.98956,3.61605 -9.53125,6 -7.08339,4.76791 -15.85884,10.8932 -26.375,17 -21.03232,12.2136 -48.883,24.21875 -83.25,24.21875 -34.3671,0 -62.06684,-11.97282 -83.03125,-24.1875 -10.48221,-6.10734 -19.2137,-12.25429 -26.34375,-17.03125 -3.56502,-2.38848 -6.74048,-4.44929 -9.6875,-6.03125 -2.94702,-1.58196 -5.57283,-2.9375 -9.34375,-2.9375 z M 246,647.75 c 1.27074,0.7609 2.63441,1.5923 4.96875,3.15625 6.57479,4.40495 16.18497,11.18648 28.09375,18.125 23.83346,13.8863 57.66186,28.71875 99.78125,28.71875 42.11555,0 76.04897,-14.76588 99.96875,-28.65625 11.95656,-6.94325 21.62459,-13.78015 28.21875,-18.21875 2.2642,-1.52406 3.56706,-2.32065 4.84375,-3.09375 19.09649,0.78608 32.97117,6.21015 44.1875,15.40625 11.58953,9.50208 20.46102,23.31535 28.03125,40.8125 15.33146,35.43575 20.46875,84.35406 20.46875,122.90625 0,23.54063 -6.90124,38.49408 -17.96875,49.03125 -11.01122,10.48357 -27.45816,17.15625 -50.78125,17.15625 l -313.96875,0 c -23.22969,0 -39.6486,-6.7201 -50.71875,-17.3125 -11.11875,-10.63891 -18.03125,-25.71778 -18.03125,-48.875 0,-38.55219 5.1373,-87.4705 20.46875,-122.90625 7.58329,-17.52735 16.47508,-31.37232 28.09375,-40.875 11.24639,-9.1982 25.1727,-14.62309 44.34375,-15.375 z" />
    <path
       transform="translate(0,10)"
       style="fill:#e6e6e6;fill-opacity:1;stroke:none"
       d="m 172.3125,266.625 c -56.74946,0 -102,45.90219 -102,102 0,56.17967 45.82035,102 102,102 31.01445,0 58.82877,-14.00599 77.5625,-35.96875 -11.89819,21.29426 -18.75,45.7948 -18.75,71.90625 0,81.57852 66.20543,147.75 147.78125,147.75 81.57564,0 147.75,-66.17415 147.75,-147.75 0,-26.11059 -6.85615,-50.61201 -18.75,-71.90625 18.73376,21.96276 46.54815,35.96875 77.5625,35.96875 56.17981,0 102,-45.82035 102,-102 0,-56.09778 -45.25038,-102 -102,-102 -56.74946,0 -102,45.90219 -102,102 0,16.74512 4.14123,32.53459 11.34375,46.5 -27.06227,-34.27031 -68.8737,-56.34375 -115.90625,-56.34375 -47.03265,0 -88.86647,22.07368 -115.9375,56.34375 7.2025,-13.96541 11.34375,-29.75488 11.34375,-46.5 0,-56.09778 -45.25036,-102 -102,-102 z m -0.0625,39.65625 c 35.65374,0 62.34375,27.27151 62.34375,62.34375 0,34.75809 -27.58549,62.34375 -62.34375,62.34375 -34.75796,0 -62.34375,-27.58577 -62.34375,-62.34375 0,-35.07214 26.6903,-62.34375 62.34375,-62.34375 z m 413.15625,0 c 35.6537,0 62.34375,27.27151 62.34375,62.34375 0,34.75807 -27.58555,62.34375 -62.34375,62.34375 -34.75798,0 -62.34375,-27.58576 -62.34375,-62.34375 0,-35.07214 26.6903,-62.34375 62.34375,-62.34375 z m -206.5625,92.15625 c 60.25074,0 108.09375,47.86559 108.09375,108.125 0,60.25996 -47.83398,108.09375 -108.09375,108.09375 -60.25947,0 -108.125,-47.84276 -108.125,-108.09375 0,-60.25045 47.87456,-108.125 108.125,-108.125 z m -299.96875,52.5 c -14.927931,0 -26.973576,8.72764 -34.46875,20.09375 -7.495174,11.36611 -11.757759,25.45752 -14.59375,40.15625 -5.671983,29.39745 -5.25,61.62015 -5.25,76.09375 0,22.72998 10.079475,40.63385 25.125,51.5625 15.045525,10.92865 34.332451,15.46875 54,15.46875 l 48.28125,0 c 2.85771,0.001 5.68951,-1.31494 7.53125,-3.5 22.44572,-26.58067 53.31356,-41.6638 87.34375,-42.25 3.52208,-0.059 6.93602,-2.16846 8.56458,-5.29197 1.62855,-3.12352 1.4035,-7.13028 -0.56458,-10.05178 -17.41383,-25.8205 -27.5625,-56.43018 -27.5625,-86.65625 0,-7.08158 0.61194,-14.89521 1.78125,-21.90625 0.57167,-3.39592 -0.79555,-7.05126 -3.45548,-9.23845 -2.65993,-2.18719 -6.51056,-2.82236 -9.73202,-1.6053 -14.0455,5.26709 -28.66605,7.625 -44.1875,7.625 -22.0813,0 -41.97468,-7.02492 -57.46875,-14.3125 -7.74704,-3.64379 -14.337122,-7.33823 -19.71875,-10.25 -2.690814,-1.45589 -5.064779,-2.71294 -7.34375,-3.75 -2.278971,-1.03706 -4.047537,-2.1875 -8.28125,-2.1875 z m 600.03125,0 c -4.45242,0 -5.98013,1.18989 -8.1875,2.21875 -2.20737,1.02886 -4.52494,2.30123 -7.1875,3.75 -5.32513,2.89754 -11.93501,6.57555 -19.71875,10.21875 -15.56747,7.2864 -35.63746,14.3125 -57.71875,14.3125 -15.26903,0 -30.05776,-2.92551 -44.53125,-7.75 -3.20712,-1.07774 -6.95656,-0.35154 -9.52937,1.84568 -2.57282,2.19722 -3.87689,5.7868 -3.31438,9.12307 1.16931,7.01104 1.78125,14.82467 1.78125,21.90625 0,30.9036 -10.16081,61.4506 -27.5,86.5625 -2.0125,2.91439 -2.27377,6.946 -0.65426,10.09576 1.61951,3.14976 5.05053,5.28292 8.59176,5.34174 34.03256,0.5868 65.56857,15.74895 87.28125,42.15625 1.83706,2.23513 4.70056,3.59028 7.59375,3.59375 l 48.3125,0 c 19.4361,0 38.71051,-4.71507 53.78125,-15.6875 15.07074,-10.97243 25.34375,-28.83499 25.34375,-51.34375 0,-14.47722 0.39907,-46.69632 -5.28125,-76.09375 C 725.12859,496.48879 720.87311,482.36537 713.375,471 705.87689,459.63463 693.83401,450.9375 678.90625,450.9375 z m -601.4375,41.875 c 4.952537,2.69037 11.593079,6.32153 19.8125,10.1875 18.35636,8.63385 43.9392,18.09375 74.34375,18.09375 5.5356,0 11.03844,-0.35505 16.53125,-0.875 1.48292,19.36766 6.29477,38.19848 13.4375,56.09375 -23.38798,7.56473 -44.59491,20.78895 -62.3125,38.34375 l -35.65625,0 c -13.292063,0 -24.980339,-3.73803 -30.71875,-7.90625 -6.692913,-4.86154 -8.75,-7.01898 -8.75,-19.46875 0,-14.96652 -0.02003,-44.97355 4.53125,-68.5625 2.252312,-11.67357 6.254599,-22.09083 8.75,-25.875 0.01551,-0.0235 0.01586,-0.008 0.03125,-0.0312 z m 602.78125,0.125 c 2.51054,3.85126 6.50851,14.18086 8.75,25.78125 4.55721,23.58497 4.53125,53.60016 4.53125,68.5625 0,11.81679 -2.13921,14.23216 -9.03125,19.25 -6.00126,4.3693 -17.72567,8.125 -30.4375,8.125 l -35.53125,0 c -17.53057,-17.59848 -38.73714,-30.77546 -62.0625,-38.3125 7.07927,-17.81725 11.56021,-36.77772 13,-56.25 5.41545,0.58023 10.90486,1 16.5625,1 30.39675,0 56.10584,-9.4238 74.5625,-18.0625 8.16141,-3.81997 14.70758,-7.38814 19.65625,-10.09375 z M 250.5,611.125 c -56.33532,0 -91.53851,34.9415 -110.34375,78.40625 -18.80524,43.46475 -23.4375,95.92731 -23.4375,137.375 0,31.08375 10.47701,57.22469 29.25,75.1875 18.77299,17.96281 45.33097,27.4375 75.9375,27.4375 l 313.96875,0 c 30.57006,0 57.11153,-9.29339 75.90625,-27.1875 18.79472,-17.89411 29.28125,-44.05945 29.28125,-75.4375 0,-41.44769 -4.63226,-93.91025 -23.4375,-137.375 C 598.81976,646.0665 563.61655,611.125 507.28125,611.125 c -4.91861,0 -7.67814,1.69694 -10.75,3.375 -3.07186,1.67806 -6.2482,3.75708 -9.8125,6.15625 -7.1286,4.79834 -15.77906,10.88015 -26.15625,16.90625 -20.75437,12.05219 -48.03736,23.75 -81.65625,23.75 -33.61899,0 -60.71797,-11.6962 -81.40625,-23.75 -10.34414,-6.0269 -19.00549,-12.12573 -26.1875,-16.9375 -3.591,-2.40589 -6.80134,-4.50401 -9.9375,-6.1875 -3.13616,-1.68349 -6.0474,-3.3125 -10.875,-3.3125 z m -5.21875,40 c 1.16982,0.72083 2.03846,1.21737 3.90625,2.46875 6.51435,4.36445 16.20425,11.20042 28.25,18.21875 24.11511,14.0504 58.53386,29.15625 101.40625,29.15625 42.86673,0 77.35946,-15.07014 101.5625,-29.125 12.09658,-7.02456 21.86765,-13.9113 28.40625,-18.3125 1.80718,-1.21643 2.65654,-1.68819 3.8125,-2.40625 17.99106,0.90421 30.92384,5.93688 41.40625,14.53125 11.03411,9.0467 19.67202,22.39885 27.125,39.625 15.01385,34.70166 20.1875,83.34719 20.1875,121.625 0,22.88468 -6.54894,36.79824 -16.96875,46.71875 -10.33626,9.84095 -25.86226,16.25 -48.5625,16.25 l -313.96875,0 c -22.59744,0 -38.09762,-6.48405 -48.5,-16.4375 -10.47451,-10.02247 -17.03125,-24.03863 -17.03125,-46.53125 0,-38.2778 5.17366,-86.92334 20.1875,-121.625 7.46584,-17.25588 16.12619,-30.60943 27.1875,-39.65625 10.52197,-8.60571 23.49757,-13.6362 41.59375,-14.5 z"
       id="path8694"
       inkscape:connector-curvature="0"
       sodipodi:nodetypes="ssscssscsssscscssssssssssssssssssssssscccscscscsssssssssscscscscccsssssscsscccssssccccsssscccsscsssssssssssssssssscssssscssssssssssc" />
  </g>
</svg>
