<?xml version="1.0" encoding="UTF-8" standalone="no"?>
<!-- Created with Inkscape (http://www.inkscape.org/) -->

<svg
   xmlns:dc="http://purl.org/dc/elements/1.1/"
   xmlns:cc="http://creativecommons.org/ns#"
   xmlns:rdf="http://www.w3.org/1999/02/22-rdf-syntax-ns#"
   xmlns:svg="http://www.w3.org/2000/svg"
   xmlns="http://www.w3.org/2000/svg"
   xmlns:sodipodi="http://sodipodi.sourceforge.net/DTD/sodipodi-0.dtd"
   xmlns:inkscape="http://www.inkscape.org/namespaces/inkscape"
   width="646.82361"
   height="647.51111"
   id="svg7513"
   version="1.1"
   inkscape:version="0.48.4 r9939"
   sodipodi:docname="HelpIcon.svg">
  <defs
     id="defs7515">
    <filter
       inkscape:collect="always"
       id="filter8129"
       color-interpolation-filters="sRGB">
      <feGaussianBlur
         inkscape:collect="always"
         stdDeviation="7.0530937"
         id="feGaussianBlur8131" />
    </filter>
  </defs>
  <sodipodi:namedview
     id="base"
     pagecolor="#ffffff"
     bordercolor="#666666"
     borderopacity="1.0"
     inkscape:pageopacity="0.0"
     inkscape:pageshadow="2"
     inkscape:zoom="0.49497475"
     inkscape:cx="104.18394"
     inkscape:cy="347.99228"
     inkscape:document-units="px"
     inkscape:current-layer="layer1"
     showgrid="false"
     fit-margin-top="0"
     fit-margin-left="0"
     fit-margin-right="0"
     fit-margin-bottom="0"
     inkscape:window-width="1366"
     inkscape:window-height="705"
     inkscape:window-x="-8"
     inkscape:window-y="-8"
     inkscape:window-maximized="1" />
  <metadata
     id="metadata7518">
    <rdf:RDF>
      <cc:Work
         rdf:about="">
        <dc:format>image/svg+xml</dc:format>
        <dc:type
           rdf:resource="http://purl.org/dc/dcmitype/StillImage" />
        <dc:title></dc:title>
      </cc:Work>
    </rdf:RDF>
  </metadata>
  <g
     inkscape:label="Layer 1"
     inkscape:groupmode="layer"
     id="layer1"
     transform="translate(-48.344641,-350.80958)">
    <path
       sodipodi:type="inkscape:offset"
       inkscape:radius="11.419223"
       inkscape:original="M 179.8125 367.75 C 116.89019 367.75 65.28125 419.33941 65.28125 482.96875 L 65.28125 866.15625 C 65.28125 929.7856 116.89019 981.40625 179.8125 981.40625 L 563.71875 981.40625 C 626.64128 981.40625 678.25 929.7856 678.25 866.15625 L 678.25 482.96875 C 678.25 419.33941 626.64128 367.75 563.71875 367.75 L 179.8125 367.75 z M 182.96875 403.0625 L 561.46875 403.0625 C 608.23261 403.0625 646.46875 440.75075 646.46875 487.875 L 646.46875 861.625 C 646.46875 908.74926 608.24186 946.40625 561.46875 946.40625 L 182.96875 946.40625 C 136.19591 946.40625 97.9375 908.7492 97.9375 861.625 L 97.9375 487.875 C 97.9375 440.75081 136.20516 403.0625 182.96875 403.0625 z M 196.90625 447.8125 C 167.11531 447.8125 143.875 471.64298 143.875 500.28125 L 143.875 849.1875 C 143.875 878.65968 167.95824 901.65625 196.90625 901.65625 L 247.09375 901.65625 C 276.8847 901.65625 300.09375 877.78291 300.09375 849.1875 L 300.09375 752 L 445.71875 752 L 445.71875 849.1875 C 445.71875 878.65968 469.80199 901.65625 498.75 901.65625 L 548.9375 901.65625 C 578.72845 901.65625 601.9375 877.78291 601.9375 849.1875 L 601.9375 500.28125 C 601.9375 470.84978 577.88551 447.8125 548.9375 447.8125 L 498.75 447.8125 C 468.95905 447.8125 445.71875 471.64297 445.71875 500.28125 L 445.71875 597.46875 L 300.09375 597.46875 L 300.09375 500.28125 C 300.09375 470.84979 276.04176 447.8125 247.09375 447.8125 L 196.90625 447.8125 z M 193.96875 470.25 L 244.875 470.25 C 258.30781 470.25 270.3125 481.54767 270.3125 495.6875 L 270.3125 623.65625 L 474.625 623.65625 L 474.625 495.6875 C 474.625 482.2547 485.95393 470.25 500.09375 470.25 L 551 470.25 C 564.4328 470.25 576.4375 481.54767 576.4375 495.6875 L 576.4375 853.4375 C 576.4375 866.8703 565.13983 878.90625 551 878.90625 L 500.09375 878.90625 C 486.66095 878.90625 474.625 867.57733 474.625 853.4375 L 474.625 725.46875 L 270.3125 725.46875 L 270.3125 853.4375 C 270.3125 866.8703 259.01483 878.90625 244.875 878.90625 L 193.96875 878.90625 C 180.53595 878.90625 168.5 867.57733 168.5 853.4375 L 168.5 495.6875 C 168.5 482.2547 179.82892 470.25 193.96875 470.25 z "
       style="fill:#000000;fill-opacity:1;stroke:none;filter:url(#filter8129)"
       id="path8135"
       d="m 179.8125,356.34375 c -69.16399,0 -125.9375,56.821 -125.9375,126.625 l 0,383.1875 c 0,69.80401 56.76973,126.65625 125.9375,126.65625 l 383.90625,0 c 69.16796,0 125.9375,-56.85227 125.9375,-126.65625 l 0,-383.1875 c 0,-69.80397 -56.77332,-126.625 -125.9375,-126.625 l -383.90625,0 z m 3.15625,58.125 378.5,0 c 40.62849,0 73.59375,32.45896 73.59375,73.40625 l 0,373.75 c 0,40.94879 -32.94971,73.375 -73.59375,73.375 l -378.5,0 c -40.64372,0 -73.625,-32.43137 -73.625,-73.375 l 0,-373.75 c 0,-40.94213 32.99683,-73.40625 73.625,-73.40625 z m 13.9375,21.9375 c -35.88061,0 -64.4375,29.05884 -64.4375,63.875 l 0,348.90625 c 0,35.693 29.4418,63.875 64.4375,63.875 l 50.1875,0 c 35.89157,0 64.40625,-29.10076 64.40625,-63.875 l 0,-85.78125 122.8125,0 0,85.78125 c 0,35.693 29.4418,63.875 64.4375,63.875 l 50.1875,0 c 35.89157,0 64.40625,-29.10076 64.40625,-63.875 l 0,-348.90625 c 0,-35.65282 -29.39984,-63.875 -64.40625,-63.875 l -50.1875,0 c -35.88062,0 -64.4375,29.05883 -64.4375,63.875 l 0,85.78125 -122.8125,0 0,-85.78125 c 0,-35.65281 -29.39984,-63.875 -64.40625,-63.875 l -50.1875,0 z m -2.9375,45.25 50.90625,0 c 7.03005,0 14.03125,6.35469 14.03125,14.03125 l 0,127.96875 a 11.420365,11.420365 0 0 0 11.40625,11.40625 l 204.3125,0 a 11.420365,11.420365 0 0 0 11.40625,-11.40625 l 0,-127.96875 c 0,-7.01232 6.38596,-14.03125 14.0625,-14.03125 l 50.90625,0 c 7.03003,0 14.03125,6.35469 14.03125,14.03125 l 0,357.75 c 0,7.03003 -6.37152,14.0625 -14.03125,14.0625 l -50.90625,0 c -7.01232,0 -14.0625,-6.40277 -14.0625,-14.0625 l 0,-127.96875 A 11.420365,11.420365 0 0 0 474.625,714.0625 l -204.3125,0 a 11.420365,11.420365 0 0 0 -11.40625,11.40625 l 0,127.96875 c 0,7.03003 -6.37152,14.0625 -14.03125,14.0625 l -50.90625,0 c -7.01232,0 -14.0625,-6.40277 -14.0625,-14.0625 l 0,-357.75 c 0,-7.01232 6.38594,-14.03125 14.0625,-14.03125 z" />
    <path
       sodipodi:type="inkscape:offset"
       inkscape:radius="8.525383"
       inkscape:original="M 175.1875 358.5625 C 112.26519 358.5625 60.65625 410.15191 60.65625 473.78125 L 60.65625 856.96875 C 60.65625 920.5981 112.26519 972.21875 175.1875 972.21875 L 559.09375 972.21875 C 622.01628 972.21875 673.625 920.5981 673.625 856.96875 L 673.625 473.78125 C 673.625 410.15191 622.01628 358.5625 559.09375 358.5625 L 175.1875 358.5625 z M 178.34375 393.875 L 556.84375 393.875 C 603.60761 393.875 641.84375 431.56325 641.84375 478.6875 L 641.84375 852.4375 C 641.84375 899.56176 603.61686 937.21875 556.84375 937.21875 L 178.34375 937.21875 C 131.57091 937.21875 93.3125 899.5617 93.3125 852.4375 L 93.3125 478.6875 C 93.3125 431.56331 131.58016 393.875 178.34375 393.875 z M 192.28125 438.625 C 162.49031 438.625 139.25 462.45548 139.25 491.09375 L 139.25 840 C 139.25 869.47218 163.33324 892.46875 192.28125 892.46875 L 242.46875 892.46875 C 272.2597 892.46875 295.46875 868.59541 295.46875 840 L 295.46875 742.8125 L 441.09375 742.8125 L 441.09375 840 C 441.09375 869.47218 465.17699 892.46875 494.125 892.46875 L 544.3125 892.46875 C 574.10345 892.46875 597.3125 868.59541 597.3125 840 L 597.3125 491.09375 C 597.3125 461.66228 573.26051 438.625 544.3125 438.625 L 494.125 438.625 C 464.33405 438.625 441.09375 462.45547 441.09375 491.09375 L 441.09375 588.28125 L 295.46875 588.28125 L 295.46875 491.09375 C 295.46875 461.66229 271.41676 438.625 242.46875 438.625 L 192.28125 438.625 z M 189.34375 461.0625 L 240.25 461.0625 C 253.68281 461.0625 265.6875 472.36017 265.6875 486.5 L 265.6875 614.46875 L 470 614.46875 L 470 486.5 C 470 473.0672 481.32893 461.0625 495.46875 461.0625 L 546.375 461.0625 C 559.8078 461.0625 571.8125 472.36017 571.8125 486.5 L 571.8125 844.25 C 571.8125 857.6828 560.51483 869.71875 546.375 869.71875 L 495.46875 869.71875 C 482.03595 869.71875 470 858.38983 470 844.25 L 470 716.28125 L 265.6875 716.28125 L 265.6875 844.25 C 265.6875 857.6828 254.38983 869.71875 240.25 869.71875 L 189.34375 869.71875 C 175.91095 869.71875 163.875 858.38983 163.875 844.25 L 163.875 486.5 C 163.875 473.0672 175.20392 461.0625 189.34375 461.0625 z "
       style="fill:#e6e6e6;fill-opacity:1;stroke:none"
       id="path8133"
       d="m 175.1875,350.03125 c -67.58223,0 -123.0625,55.51077 -123.0625,123.75 l 0,383.1875 c 0,68.23924 55.47745,123.78125 123.0625,123.78125 l 383.90625,0 c 67.58526,0 123.0625,-55.54203 123.0625,-123.78125 l 0,-383.1875 c 0,-68.23921 -55.48007,-123.75 -123.0625,-123.75 l -383.90625,0 z m 3.15625,52.375 378.5,0 c 42.1833,0 76.46875,33.76861 76.46875,76.28125 l 0,373.75 c 0,42.51377 -34.27149,76.25 -76.46875,76.25 l -378.5,0 c -42.19695,0 -76.5,-33.7401 -76.5,-76.25 l 0,-373.75 c 0,-42.50878 34.317,-76.28125 76.5,-76.28125 z m 13.9375,27.6875 c -34.33738,0 -61.5625,27.74943 -61.5625,61 l 0,348.90625 c 0,34.11653 28.09939,61 61.5625,61 l 50.1875,0 C 276.81431,901 304,873.20841 304,840 l 0,-88.65625 128.5625,0 0,88.65625 c 0,34.11653 28.09939,61 61.5625,61 l 50.1875,0 c 34.34556,0 61.53125,-27.79159 61.53125,-61 l 0,-348.90625 c 0,-34.07621 -28.06015,-61 -61.53125,-61 l -50.1875,0 c -34.33738,0 -61.5625,27.74942 -61.5625,61 l 0,88.65625 -128.5625,0 0,-88.65625 c 0,-34.0762 -28.06015,-61 -61.53125,-61 l -50.1875,0 z m -2.9375,39.5 50.90625,0 c 8.65263,0 16.90625,7.59178 16.90625,16.90625 l 0,127.96875 A 8.5262355,8.5262355 0 0 0 265.6875,623 L 470,623 a 8.5262355,8.5262355 0 0 0 8.53125,-8.53125 l 0,-127.96875 c 0,-8.63939 7.62304,-16.90625 16.9375,-16.90625 l 50.90625,0 c 8.65261,0 16.90625,7.59178 16.90625,16.90625 l 0,357.75 c 0,8.65261 -7.60434,16.9375 -16.90625,16.9375 l -50.90625,0 c -8.63939,0 -16.9375,-7.63559 -16.9375,-16.9375 l 0,-127.96875 A 8.5262355,8.5262355 0 0 0 470,707.75 l -204.3125,0 a 8.5262355,8.5262355 0 0 0 -8.53125,8.53125 l 0,127.96875 c 0,8.65261 -7.60434,16.9375 -16.90625,16.9375 l -50.90625,0 c -8.63939,0 -16.9375,-7.63559 -16.9375,-16.9375 l 0,-357.75 c 0,-8.63939 7.62303,-16.90625 16.9375,-16.90625 z" />
  </g>
</svg>
