<?xml version="1.0" encoding="UTF-8" standalone="no"?>
<svg width="256px" height="256px" viewBox="0 0 256 256" version="1.1" xmlns="http://www.w3.org/2000/svg" xmlns:xlink="http://www.w3.org/1999/xlink">
    
    <title>Coink Logo</title>

    <defs>
        <path id="coin" d="M38,83 C58.9868215,83 76,65.9868215 76,45 C76,24.0131785 58.9868215,7 38,7 C17.0131785,7 0,24.0131785 0,45 C0,65.9868215 17.0131785,83 38,83 Z"></path>

        <path id="pig" d="M15,67 C20,67 24,45 29,40 C34,35 44,29 52,26 C54,26 55,26 57,29 L52.5643131,8.72257407 C51.1480821,2.24837518 55.1670402,-1.53363198 61.5175796,0.380494224 C61.5175796,0.380494224 72,3 76,6 C80,9 90,27 90,27 C90,27 89,12 92,10 C156,4 194,45 193,85 C201,86 202,86 206,84 C193,69 198.843053,54 205,54 C212,54 217,62 216,80 C226,79 224,61 224,57 C237,79 223,88 213,87 C207,99 199,94 192,95 C188,121 162,141 162,141 L166,162 C166,164.209145 162,166 162,166 L142,166 C135,165 129,150 129,150 L92,150 C92,150 89,161 81,166 L59,166 C56.790861,166 55,162 55,162 L58,140 C58,140 44,132 26,117 L15,116 C12.790861,116 12,111 12,111 C12,108.157554 14,104.842443 14,102 C-3,107 7.10542736e-15,67 7.10542736e-15,67 C7.10542736e-15,67 9,67 15,67 Z M205,60 C201,61 203,74 210,79 C213,73 209,59 205,60 Z"></path>
    </defs>
    
    <g id="Flat-Logo">    
        <g id="Logo" transform="translate(14, 10)">
            
            <g id="Coin0" transform="translate(125, 33)">
                
                <g id="Coin">
                    <use stroke-opacity="0.54" stroke="#FFEE41" stroke-width="8" fill="#FFEE41" fill-rule="evenodd" xlink:href="#coin"></use>
                    <use stroke="#FFFFFF" stroke-width="4" fill="#FFEE41" xlink:href="#coin"></use>
                    <use fill="#FFEE41" xlink:href="#coin"></use>
                </g>

                <text id="0" stroke="#FFFFFF" stroke-width="2" fill="#FFA400" font-family="Helvetica" font-size="70" font-weight="bold">
                    <tspan x="19" y="68">0</tspan>
                </text>
            </g>
            
            <g id="Coin1" transform="translate(39, 0)">
                
                <g id="Coin">
                    <use stroke-opacity="0.54" stroke="#FFEE41" stroke-width="8" fill="#FFEE41" fill-rule="evenodd" xlink:href="#coin"></use>
                    <use stroke="#FFFFFF" stroke-width="4" fill="#FFEE41" xlink:href="#coin"></use>
                    <use fill="#FFEE41" xlink:href="#coin"></use>
                </g>
                
                <text id="1" stroke="#FFFFFF" stroke-width="2" fill="#FFA400" font-family="Helvetica" font-size="70" font-weight="bold">
                    <tspan x="19" y="68">1</tspan>
                </text>
            </g>

            <g id="Pig" transform="translate(0, 64)">

                <g stroke-linecap="round" stroke-linejoin="round">
                    <use stroke-opacity="0.51" stroke="#FF8888" stroke-width="14" fill="#FF8888" fill-rule="evenodd" xlink:href="#pig"></use>
                    <use stroke="#FFFFFF" stroke-width="8" fill="#FF8888" xlink:href="#pig"></use>
                    <use stroke-width="0" fill="#FF8888" xlink:href="#pig"></use>
                </g>

                <ellipse id="eye" fill="#FFFFFF" cx="36" cy="63.5" rx="6" ry="12.5"></ellipse>

            </g>
        </g>
    </g>

</svg>